<svg fill="#000000" height="60px" width="60px" version="1.1" id="Capa_1" xmlns="http://www.w3.org/2000/svg" xmlns:xlink="http://www.w3.org/1999/xlink" viewBox="0 0 12.194 12.194" xml:space="preserve"><g><path d="M11.93 0.096a0.563 0.563 0 0 0 -0.525 -0.055L9.248 0.911A6.05 6.05 0 0 0 6.097 0.032a6.051 6.051 0 0 0 -3.151 0.879L0.789 0.041A0.563 0.563 0 0 0 0.016 0.563v5.55c0 3.353 2.728 6.08 6.081 6.08 3.353 0 6.08 -2.728 6.08 -6.08V0.563a0.563 0.563 0 0 0 -0.247 -0.467zm-5.833 10.973a4.954 4.954 0 0 1 -4.106 -2.183h0.872a0.45 0.45 0 0 0 0 -0.9H1.51a4.922 4.922 0 0 1 -0.191 -0.558h2.507a0.45 0.45 0 0 0 0 -0.9H1.159a4.984 4.984 0 0 1 -0.019 -0.415v-0.143h1.722a0.45 0.45 0 0 0 0 -0.9H1.141V1.396l1.654 0.667a0.563 0.563 0 0 0 0.526 -0.056 4.927 4.927 0 0 1 2.776 -0.85c0.995 0 1.955 0.294 2.776 0.85a0.563 0.563 0 0 0 0.526 0.056l1.653 -0.667V5.07H9.33a0.45 0.45 0 0 0 0 0.9h1.722v0.143c0 0.14 -0.007 0.277 -0.019 0.415h-2.666a0.45 0.45 0 0 0 0 0.9h2.506a4.917 4.917 0 0 1 -0.19 0.558H9.33a0.45 0.45 0 0 0 0 0.9h0.872a4.954 4.954 0 0 1 -4.106 2.183z"/><path d="M7.059 6.346H5.135a0.15 0.15 0 0 0 -0.15 0.15 1.113 1.113 0 0 0 2.225 0 0.15 0.15 0 0 0 -0.15 -0.15z"/></g></svg>